{
  "accessors": [
    {
      "bufferView": 1,
      "componentType": 5126,
      "count": 216,
      "max": [
        0.010040000081062317,
        0.038619998842477798,
        0.075230002403259277
      ],
      "min": [
        -0.010040000081062317,
        -0.038619998842477798,
        -0.078589998185634613
      ],
      "type": "VEC3"
    },
    {
      "bufferView": 1,
      "byteOffset": 2592,
      "componentType": 5126,
      "count": 216,
      "max": [
        1,
        0.92178636789321899,
        0.93982923030853271
      ],
      "min": [
        -1,
        -0.92178636789321899,
        -0.85640841722488403
      ],
      "type": "VEC3"
    },
    {
      "bufferView": 0,
      "componentType": 5125,
      "count": 348,
      "max": [
        215
      ],
      "min": [
        0
      ],
      "type": "SCALAR"
    },
    {
      "bufferView": 1,
      "byteOffset": 5184,
      "componentType": 5126,
      "count": 372,
      "max": [
        0.046629998832941055,
        0.11023999750614166,
        0.080580003559589386
      ],
      "min": [
        -0.0011899999808520079,
        -0.11023999750614166,
        -0.11157000064849854
      ],
      "type": "VEC3"
    },
    {
      "bufferView": 1,
      "byteOffset": 9648,
      "componentType": 5126,
      "count": 372,
      "max": [
        0.99116361141204834,
        0.95363044738769531,
        0.97159415483474731
      ],
      "min": [
        -0.99116361141204834,
        -0.95363044738769531,
        -0.89592176675796509
      ],
      "type": "VEC3"
    },
    {
      "bufferView": 0,
      "byteOffset": 1392,
      "componentType": 5125,
      "count": 996,
      "max": [
        371
      ],
      "min": [
        0
      ],
      "type": "SCALAR"
    },
    {
      "bufferView": 1,
      "byteOffset": 14112,
      "componentType": 5126,
      "count": 4398,
      "max": [
        3.1364099979400635,
        0.75357002019882202,
        4.6679301261901855
      ],
      "min": [
        -2.376039981842041,
        -0.72031998634338379,
        -0.077550001442432404
      ],
      "type": "VEC3"
    },
    {
      "bufferView": 1,
      "byteOffset": 66888,
      "componentType": 5126,
      "count": 4398,
      "max": [
        0.99945050477981567,
        0.99996143579483032,
        0.99763810634613037
      ],
      "min": [
        -0.99954879283905029,
        -0.99988144636154175,
        -0.99999511241912842
      ],
      "type": "VEC3"
    },
    {
      "bufferView": 0,
      "byteOffset": 5376,
      "componentType": 5125,
      "count": 4464,
      "max": [
        4397
      ],
      "min": [
        0
      ],
      "type": "SCALAR"
    },
    {
      "bufferView": 1,
      "byteOffset": 119664,
      "componentType": 5126,
      "count": 498,
      "max": [
        3.4713099002838135,
        0.56501001119613647,
        4.9407501220703125
      ],
      "min": [
        -2.4020299911499023,
        -0.56049001216888428,
        -0.077550001442432404
      ],
      "type": "VEC3"
    },
    {
      "bufferView": 1,
      "byteOffset": 125640,
      "componentType": 5126,
      "count": 498,
      "max": [
        0.99945050477981567,
        0.99812465906143188,
        0.99992978572845459
      ],
      "min": [
        -0.99163448810577393,
        -0.99972283840179443,
        -0.99985939264297485
      ],
      "type": "VEC3"
    },
    {
      "bufferView": 0,
      "byteOffset": 23232,
      "componentType": 5125,
      "count": 546,
      "max": [
        497
      ],
      "min": [
        0
      ],
      "type": "SCALAR"
    }
  ],
  "asset": {
    "extras": {
      "author": "katarkhei (https://sketchfab.com/katarkhei)",
      "license": "CC-BY-4.0 (http://creativecommons.org/licenses/by/4.0/)",
      "source": "https://sketchfab.com/models/79c1321b05ca47b79ee3111ff449518e",
      "title": "Sketch Cat"
    },
    "generator": "Sketchfab-3.43.5",
    "version": "2.0"
  },
  "bufferViews": [
    {
      "buffer": 0,
      "byteLength": 25416,
      "byteOffset": 0,
      "name": "floatBufferViews",
      "target": 34963
    },
    {
      "buffer": 0,
      "byteLength": 131616,
      "byteOffset": 25416,
      "byteStride": 12,
      "name": "floatBufferViews",
      "target": 34962
    }
  ],
  "buffers": [
    {
      "byteLength": 157032,
      "uri": "scene.bin"
    }
  ],
  "extensionsRequired": [
    "KHR_materials_pbrSpecularGlossiness"
  ],
  "extensionsUsed": [
    "KHR_materials_pbrSpecularGlossiness"
  ],
  "materials": [
    {
      "doubleSided": true,
      "extensions": {
        "KHR_materials_pbrSpecularGlossiness": {
          "diffuseFactor": [
            0.0034381442999999999,
            0.00031822909999999999,
            0.00031822909999999999,
            1
          ],
          "glossinessFactor": 0.23608993899999997,
          "specularFactor": [
            0.013910061,
            0.013910061,
            0.013910061
          ]
        }
      },
      "name": "Material.008"
    },
    {
      "doubleSided": true,
      "extensions": {
        "KHR_materials_pbrSpecularGlossiness": {
          "diffuseFactor": [
            1,
            1,
            1,
            1
          ],
          "glossinessFactor": 1,
          "specularFactor": [
            0.45903201220000001,
            0.45903201220000001,
            0.45903201220000001
          ]
        }
      },
      "name": "Material.007"
    },
    {
      "doubleSided": true,
      "extensions": {
        "KHR_materials_pbrSpecularGlossiness": {
          "diffuseFactor": [
            0.0017123756999999999,
            9.8499500000000001e-05,
            9.8499500000000001e-05,
            1
          ],
          "glossinessFactor": 0.40000000000000002,
          "specularFactor": [
            0.074885670700000004,
            0.074885670700000004,
            0.074885670700000004
          ]
        }
      },
      "name": "Material.012"
    },
    {
      "doubleSided": true,
      "extensions": {
        "KHR_materials_pbrSpecularGlossiness": {
          "diffuseFactor": [
            1,
            0.0010274253999999999,
            0.0010274253999999999,
            1
          ],
          "glossinessFactor": 0.40000000000000002,
          "specularFactor": [
            0.13586128049999999,
            0.13586128049999999,
            0.13586128049999999
          ]
        }
      },
      "name": "Material.009"
    }
  ],
  "meshes": [
    {
      "name": "Cube.001_0",
      "primitives": [
        {
          "attributes": {
            "NORMAL": 1,
            "POSITION": 0
          },
          "indices": 2,
          "material": 2,
          "mode": 4
        }
      ]
    },
    {
      "name": "Cube.001_1",
      "primitives": [
        {
          "attributes": {
            "NORMAL": 4,
            "POSITION": 3
          },
          "indices": 5,
          "material": 3,
          "mode": 4
        }
      ]
    },
    {
      "name": "Cube_0",
      "primitives": [
        {
          "attributes": {
            "NORMAL": 7,
            "POSITION": 6
          },
          "indices": 8,
          "material": 0,
          "mode": 4
        }
      ]
    },
    {
      "name": "Cube_1",
      "primitives": [
        {
          "attributes": {
            "NORMAL": 10,
            "POSITION": 9
          },
          "indices": 11,
          "material": 1,
          "mode": 4
        }
      ]
    }
  ],
  "nodes": [
    {
      "children": [
        1
      ],
      "name": "RootNode (gltf orientation matrix)",
      "rotation": [
        -0.70710678118654746,
        -0,
        -0,
        0.70710678118654757
      ]
    },
    {
      "children": [
        2
      ],
      "name": "RootNode (model correction matrix)"
    },
    {
      "children": [
        3,
        6
      ],
      "name": "Root"
    },
    {
      "children": [
        4,
        5
      ],
      "matrix": [
        2.0721999999999996,
        0,
        0,
        0,
        0,
        2.0721999999999996,
        0,
        0,
        0,
        0,
        2.0721999999999996,
        0,
        2.3685100000000001,
        -0.059260000000000007,
        2.0000300000000002,
        1
      ],
      "name": "Cube.001"
    },
    {
      "mesh": 0,
      "name": "Cube.001_0"
    },
    {
      "mesh": 1,
      "name": "Cube.001_1"
    },
    {
      "children": [
        7,
        8
      ],
      "name": "Cube"
    },
    {
      "mesh": 2,
      "name": "Cube_0"
    },
    {
      "mesh": 3,
      "name": "Cube_1"
    }
  ],
  "scene": 0,
  "scenes": [
    {
      "name": "OSG_Scene",
      "nodes": [
        0
      ]
    }
  ]
}

