{
  "accessors": [
    {
      "bufferView": 2,
      "componentType": 5126,
      "count": 3144,
      "max": [
        -387.66412353515625,
        219.07803344726562,
        374.830810546875
      ],
      "min": [
        -935.00628662109375,
        -99.770156860351562,
        247.51664733886719
      ],
      "type": "VEC3"
    },
    {
      "bufferView": 2,
      "byteOffset": 37728,
      "componentType": 5126,
      "count": 3144,
      "max": [
        0.9998660683631897,
        0.99634677171707153,
        0.99992352724075317
      ],
      "min": [
        -0.99996834993362427,
        -0.99131715297698975,
        -0.99992388486862183
      ],
      "type": "VEC3"
    },
    {
      "bufferView": 3,
      "componentType": 5126,
      "count": 3144,
      "max": [
        0.99997705221176147,
        0.99984556436538696,
        0.99296295642852783,
        1
      ],
      "min": [
        -1,
        -0.99985384941101074,
        -0.99825626611709595,
        -1
      ],
      "type": "VEC4"
    },
    {
      "bufferView": 1,
      "componentType": 5126,
      "count": 3144,
      "max": [
        0.99745744466781616,
        0.97783619165420532
      ],
      "min": [
        0.0067947274073958397,
        0.024154789745807648
      ],
      "type": "VEC2"
    },
    {
      "bufferView": 0,
      "componentType": 5125,
      "count": 14418,
      "max": [
        3143
      ],
      "min": [
        0
      ],
      "type": "SCALAR"
    }
  ],
  "asset": {
    "extras": {
      "author": "DragoO (https://sketchfab.com/DragoO)",
      "license": "CC-BY-4.0 (http://creativecommons.org/licenses/by/4.0/)",
      "source": "https://sketchfab.com/models/7f4b9815b47440c3a69b7971866cd580",
      "title": "Bird Flying"
    },
    "generator": "Sketchfab-3.18.7",
    "version": "2.0"
  },
  "bufferViews": [
    {
      "buffer": 0,
      "byteLength": 57672,
      "byteOffset": 0,
      "name": "floatBufferViews",
      "target": 34963
    },
    {
      "buffer": 0,
      "byteLength": 25152,
      "byteOffset": 57672,
      "byteStride": 8,
      "name": "floatBufferViews",
      "target": 34962
    },
    {
      "buffer": 0,
      "byteLength": 75456,
      "byteOffset": 82824,
      "byteStride": 12,
      "name": "floatBufferViews",
      "target": 34962
    },
    {
      "buffer": 0,
      "byteLength": 50304,
      "byteOffset": 158280,
      "byteStride": 16,
      "name": "floatBufferViews",
      "target": 34962
    }
  ],
  "buffers": [
    {
      "byteLength": 208584,
      "uri": "scene.bin"
    }
  ],
  "images": [
    {
      "uri": "textures/Material_217_baseColor.jpg"
    }
  ],
  "materials": [
    {
      "doubleSided": true,
      "emissiveFactor": [
        0,
        0,
        0
      ],
      "name": "Material_217",
      "pbrMetallicRoughness": {
        "baseColorFactor": [
          1,
          1,
          1,
          1
        ],
        "baseColorTexture": {
          "index": 0,
          "texCoord": 0
        },
        "metallicFactor": 0.84857722030000005,
        "roughnessFactor": 0.83638209829999999
      }
    }
  ],
  "meshes": [
    {
      "name": "z_Material #217_0",
      "primitives": [
        {
          "attributes": {
            "NORMAL": 1,
            "POSITION": 0,
            "TANGENT": 2,
            "TEXCOORD_0": 3
          },
          "indices": 4,
          "material": 0,
          "mode": 4
        }
      ]
    }
  ],
  "nodes": [
    {
      "children": [
        1
      ],
      "name": "RootNode (gltf orientation matrix)",
      "rotation": [
        -0.70710678118654746,
        -0,
        -0,
        0.70710678118654757
      ]
    },
    {
      "children": [
        2
      ],
      "name": "RootNode (model correction matrix)"
    },
    {
      "children": [
        3
      ],
      "matrix": [
        1,
        0,
        0,
        0,
        0,
        0,
        1,
        0,
        0,
        -1,
        0,
        0,
        0,
        0,
        0,
        1
      ],
      "name": "bed973f8d685478fbfc210e3c4622444.fbx"
    },
    {
      "children": [
        4
      ],
      "name": "RootNode"
    },
    {
      "children": [
        5
      ],
      "matrix": [
        0.65519177913665771,
        0,
        0,
        0,
        0,
        1.4773818964089458e-16,
        -0.66535365581512451,
        0,
        0,
        0.61911231279373169,
        1.3747054889850656e-16,
        0,
        -121.22451782226562,
        -161.83163452148438,
        64.398040771484375,
        1
      ],
      "name": "z"
    },
    {
      "mesh": 0,
      "name": "z_Material #217_0"
    }
  ],
  "samplers": [
    {
      "magFilter": 9729,
      "minFilter": 9987,
      "wrapS": 10497,
      "wrapT": 10497
    }
  ],
  "scene": 0,
  "scenes": [
    {
      "name": "OSG_Scene",
      "nodes": [
        0
      ]
    }
  ],
  "textures": [
    {
      "sampler": 0,
      "source": 0
    }
  ]
}

