{
  "accessors": [
    {
      "bufferView": 1,
      "componentType": 5126,
      "count": 9199,
      "max": [
        1.3311200141906738,
        1.390779972076416,
        1.3456399440765381
      ],
      "min": [
        -1.3311200141906738,
        -1.390779972076416,
        -1.3456399440765381
      ],
      "type": "VEC3"
    },
    {
      "bufferView": 1,
      "byteOffset": 110388,
      "componentType": 5126,
      "count": 9199,
      "max": [
        0.99999809265136719,
        0.99732345342636108,
        0.98329222202301025
      ],
      "min": [
        -0.99999988079071045,
        -1,
        -0.9999421238899231
      ],
      "type": "VEC3"
    },
    {
      "bufferView": 0,
      "componentType": 5125,
      "count": 32667,
      "max": [
        9198
      ],
      "min": [
        0
      ],
      "type": "SCALAR"
    },
    {
      "bufferView": 1,
      "byteOffset": 220776,
      "componentType": 5126,
      "count": 65532,
      "max": [
        1.1262500286102295,
        1.1235400438308716,
        0.80704998970031738
      ],
      "min": [
        -1.1638599634170532,
        -1.1485699415206909,
        -0.74611002206802368
      ],
      "type": "VEC3"
    },
    {
      "bufferView": 1,
      "byteOffset": 1007160,
      "componentType": 5126,
      "count": 65532,
      "max": [
        0.99999654293060303,
        0.99891966581344604,
        0.99922370910644531
      ],
      "min": [
        -0.99999535083770752,
        -0.99956071376800537,
        -0.99968796968460083
      ],
      "type": "VEC3"
    },
    {
      "bufferView": 0,
      "byteOffset": 130668,
      "componentType": 5125,
      "count": 72825,
      "max": [
        65531
      ],
      "min": [
        0
      ],
      "type": "SCALAR"
    },
    {
      "bufferView": 1,
      "byteOffset": 1793544,
      "componentType": 5126,
      "count": 21747,
      "max": [
        1.1262500286102295,
        1.1233400106430054,
        0.80704998970031738
      ],
      "min": [
        -1.1638599634170532,
        -1.1485699415206909,
        -0.74611002206802368
      ],
      "type": "VEC3"
    },
    {
      "bufferView": 1,
      "byteOffset": 2054508,
      "componentType": 5126,
      "count": 21747,
      "max": [
        0.99999880790710449,
        0.99878382682800293,
        0.99932724237442017
      ],
      "min": [
        -0.99998009204864502,
        -0.99874061346054077,
        -0.99925082921981812
      ],
      "type": "VEC3"
    },
    {
      "bufferView": 0,
      "byteOffset": 421968,
      "componentType": 5125,
      "count": 32619,
      "max": [
        21746
      ],
      "min": [
        0
      ],
      "type": "SCALAR"
    },
    {
      "bufferView": 1,
      "byteOffset": 2315472,
      "componentType": 5126,
      "count": 16696,
      "max": [
        0.88879001140594482,
        0.84656000137329102,
        0.96606999635696411
      ],
      "min": [
        -0.88879001140594482,
        -0.84656000137329102,
        -0.96606999635696411
      ],
      "type": "VEC3"
    },
    {
      "bufferView": 1,
      "byteOffset": 2515824,
      "componentType": 5126,
      "count": 16696,
      "max": [
        0.99999117851257324,
        0.99995386600494385,
        0.99979197978973389
      ],
      "min": [
        -0.99999105930328369,
        -0.99996012449264526,
        -0.99999707937240601
      ],
      "type": "VEC3"
    },
    {
      "bufferView": 2,
      "componentType": 5126,
      "count": 16696,
      "max": [
        1,
        1,
        1,
        1
      ],
      "min": [
        -0.99999725818634033,
        -1,
        -1,
        -1
      ],
      "type": "VEC4"
    },
    {
      "bufferView": 0,
      "byteOffset": 552444,
      "componentType": 5125,
      "count": 62310,
      "max": [
        16695
      ],
      "min": [
        0
      ],
      "type": "SCALAR"
    },
    {
      "bufferView": 1,
      "byteOffset": 2716176,
      "componentType": 5126,
      "count": 65532,
      "max": [
        0.82411998510360718,
        0.8413199782371521,
        0.74557000398635864
      ],
      "min": [
        -0.82444000244140625,
        -0.83091998100280762,
        -0.80062001943588257
      ],
      "type": "VEC3"
    },
    {
      "bufferView": 1,
      "byteOffset": 3502560,
      "componentType": 5126,
      "count": 65532,
      "max": [
        0.99153941869735718,
        0.98742181062698364,
        0.99988967180252075
      ],
      "min": [
        -0.9899977445602417,
        -0.9973108172416687,
        -0.99794429540634155
      ],
      "type": "VEC3"
    },
    {
      "bufferView": 2,
      "byteOffset": 267136,
      "componentType": 5126,
      "count": 65532,
      "max": [
        0.99999666213989258,
        0.9999660849571228,
        0.99985522031784058,
        1
      ],
      "min": [
        -0.99886620044708252,
        -0.99978631734848022,
        -0.99743467569351196,
        -1
      ],
      "type": "VEC4"
    },
    {
      "bufferView": 0,
      "byteOffset": 801684,
      "componentType": 5125,
      "count": 73362,
      "max": [
        65531
      ],
      "min": [
        0
      ],
      "type": "SCALAR"
    },
    {
      "bufferView": 1,
      "byteOffset": 4288944,
      "componentType": 5126,
      "count": 46470,
      "max": [
        0.82411998510360718,
        0.8413199782371521,
        0.74557000398635864
      ],
      "min": [
        -0.82423001527786255,
        -0.83091998100280762,
        -0.80062001943588257
      ],
      "type": "VEC3"
    },
    {
      "bufferView": 1,
      "byteOffset": 4846584,
      "componentType": 5126,
      "count": 46470,
      "max": [
        0.99173009395599365,
        0.99546259641647339,
        0.99629807472229004
      ],
      "min": [
        -0.99244409799575806,
        -0.99985605478286743,
        -0.99633890390396118
      ],
      "type": "VEC3"
    },
    {
      "bufferView": 2,
      "byteOffset": 1315648,
      "componentType": 5126,
      "count": 46470,
      "max": [
        0.99990874528884888,
        0.99895423650741577,
        0.9992789626121521,
        1
      ],
      "min": [
        -0.99964666366577148,
        -0.9999549388885498,
        -0.99749851226806641,
        -1
      ],
      "type": "VEC4"
    },
    {
      "bufferView": 0,
      "byteOffset": 1095132,
      "componentType": 5125,
      "count": 63813,
      "max": [
        46469
      ],
      "min": [
        0
      ],
      "type": "SCALAR"
    },
    {
      "bufferView": 1,
      "byteOffset": 5404224,
      "componentType": 5126,
      "count": 7434,
      "max": [
        1.5900199413299561,
        1.5900199413299561,
        1.5900199413299561
      ],
      "min": [
        -1.5900199413299561,
        -1.5900199413299561,
        -1.5900199413299561
      ],
      "type": "VEC3"
    },
    {
      "bufferView": 1,
      "byteOffset": 5493432,
      "componentType": 5126,
      "count": 7434,
      "max": [
        0.99954122304916382,
        0.99954122304916382,
        0.99954122304916382
      ],
      "min": [
        -0.99954122304916382,
        -0.99954122304916382,
        -0.99954122304916382
      ],
      "type": "VEC3"
    },
    {
      "bufferView": 0,
      "byteOffset": 1350384,
      "componentType": 5125,
      "count": 27951,
      "max": [
        7433
      ],
      "min": [
        0
      ],
      "type": "SCALAR"
    },
    {
      "bufferView": 1,
      "byteOffset": 5582640,
      "componentType": 5126,
      "count": 53744,
      "max": [
        1.44336998462677,
        1.4539899826049805,
        1.4751700162887573
      ],
      "min": [
        -1.4437799453735352,
        -1.499500036239624,
        -1.5166800022125244
      ],
      "type": "VEC3"
    },
    {
      "bufferView": 1,
      "byteOffset": 6227568,
      "componentType": 5126,
      "count": 53744,
      "max": [
        0.99706906080245972,
        0.99352180957794189,
        0.99657142162322998
      ],
      "min": [
        -0.9798169732093811,
        -0.99842369556427002,
        -0.99512225389480591
      ],
      "type": "VEC3"
    },
    {
      "bufferView": 0,
      "byteOffset": 1462188,
      "componentType": 5125,
      "count": 67362,
      "max": [
        53743
      ],
      "min": [
        0
      ],
      "type": "SCALAR"
    },
    {
      "bufferView": 1,
      "byteOffset": 6872496,
      "componentType": 5126,
      "count": 3302,
      "max": [
        0.95748001337051392,
        0.95748001337051392,
        0.92676997184753418
      ],
      "min": [
        -0.95748001337051392,
        -0.95748001337051392,
        -0.92676997184753418
      ],
      "type": "VEC3"
    },
    {
      "bufferView": 1,
      "byteOffset": 6912120,
      "componentType": 5126,
      "count": 3302,
      "max": [
        0.99729573726654053,
        0.99729573726654053,
        0.9840998649597168
      ],
      "min": [
        -0.99729573726654053,
        -0.99729573726654053,
        -0.9840998649597168
      ],
      "type": "VEC3"
    },
    {
      "bufferView": 0,
      "byteOffset": 1731636,
      "componentType": 5125,
      "count": 12165,
      "max": [
        3301
      ],
      "min": [
        0
      ],
      "type": "SCALAR"
    },
    {
      "bufferView": 1,
      "byteOffset": 6951744,
      "componentType": 5126,
      "count": 26952,
      "max": [
        0.85120999813079834,
        0.84372997283935547,
        0.67746001482009888
      ],
      "min": [
        -0.86722999811172485,
        -0.85806000232696533,
        -0.66080999374389648
      ],
      "type": "VEC3"
    },
    {
      "bufferView": 1,
      "byteOffset": 7275168,
      "componentType": 5126,
      "count": 26952,
      "max": [
        0.99328333139419556,
        0.9952472448348999,
        0.99748724699020386
      ],
      "min": [
        -0.99325847625732422,
        -0.99457913637161255,
        -0.99951893091201782
      ],
      "type": "VEC3"
    },
    {
      "bufferView": 0,
      "byteOffset": 1780296,
      "componentType": 5125,
      "count": 35274,
      "max": [
        26951
      ],
      "min": [
        0
      ],
      "type": "SCALAR"
    },
    {
      "bufferView": 1,
      "byteOffset": 7598592,
      "componentType": 5126,
      "count": 3682,
      "max": [
        1,
        1,
        1
      ],
      "min": [
        -1.0006799697875977,
        -1,
        -1
      ],
      "type": "VEC3"
    },
    {
      "bufferView": 1,
      "byteOffset": 7642776,
      "componentType": 5126,
      "count": 3682,
      "max": [
        1,
        1,
        1
      ],
      "min": [
        -1,
        -1,
        -1
      ],
      "type": "VEC3"
    },
    {
      "bufferView": 0,
      "byteOffset": 1921392,
      "componentType": 5125,
      "count": 15915,
      "max": [
        3681
      ],
      "min": [
        0
      ],
      "type": "SCALAR"
    },
    {
      "bufferView": 1,
      "byteOffset": 7686960,
      "componentType": 5126,
      "count": 8929,
      "max": [
        1.0508300065994263,
        1.0461800098419189,
        1.0412700176239014
      ],
      "min": [
        -1.0450799465179443,
        -1.0417399406433105,
        -1.040619969367981
      ],
      "type": "VEC3"
    },
    {
      "bufferView": 1,
      "byteOffset": 7794108,
      "componentType": 5126,
      "count": 8929,
      "max": [
        1,
        1,
        1
      ],
      "min": [
        -1,
        -1,
        -1
      ],
      "type": "VEC3"
    },
    {
      "bufferView": 0,
      "byteOffset": 1985052,
      "componentType": 5125,
      "count": 29550,
      "max": [
        8928
      ],
      "min": [
        0
      ],
      "type": "SCALAR"
    },
    {
      "bufferView": 1,
      "byteOffset": 7901256,
      "componentType": 5126,
      "count": 4272,
      "max": [
        0.77745002508163452,
        0.90435999631881714,
        0.81963998079299927
      ],
      "min": [
        -0.77737998962402344,
        -0.46834000945091248,
        -1
      ],
      "type": "VEC3"
    },
    {
      "bufferView": 1,
      "byteOffset": 7952520,
      "componentType": 5126,
      "count": 4272,
      "max": [
        1,
        0.96959656476974487,
        1
      ],
      "min": [
        -1,
        -0.99484938383102417,
        -1
      ],
      "type": "VEC3"
    },
    {
      "bufferView": 0,
      "byteOffset": 2103252,
      "componentType": 5125,
      "count": 14505,
      "max": [
        4271
      ],
      "min": [
        0
      ],
      "type": "SCALAR"
    },
    {
      "bufferView": 1,
      "byteOffset": 8003784,
      "componentType": 5126,
      "count": 17125,
      "max": [
        0.64770001173019409,
        0.76960998773574829,
        0.55257999897003174
      ],
      "min": [
        -0.70719999074935913,
        -0.46742001175880432,
        -1.0317599773406982
      ],
      "type": "VEC3"
    },
    {
      "bufferView": 1,
      "byteOffset": 8209284,
      "componentType": 5126,
      "count": 17125,
      "max": [
        0.9989389181137085,
        0.99864530563354492,
        1
      ],
      "min": [
        -0.99966073036193848,
        -0.99983745813369751,
        -1
      ],
      "type": "VEC3"
    },
    {
      "bufferView": 0,
      "byteOffset": 2161272,
      "componentType": 5125,
      "count": 53046,
      "max": [
        17124
      ],
      "min": [
        0
      ],
      "type": "SCALAR"
    }
  ],
  "asset": {
    "extras": {
      "author": "JayDesigns3D (https://sketchfab.com/JayDesigns)",
      "license": "CC-BY-4.0 (http://creativecommons.org/licenses/by/4.0/)",
      "source": "https://sketchfab.com/models/163950cff9694fe1a686d22fe7737236",
      "title": "Dungeons And Dragons Dice Set"
    },
    "generator": "Sketchfab-3.18.5",
    "version": "2.0"
  },
  "bufferViews": [
    {
      "buffer": 0,
      "byteLength": 2373456,
      "byteOffset": 0,
      "name": "floatBufferViews",
      "target": 34963
    },
    {
      "buffer": 0,
      "byteLength": 8414784,
      "byteOffset": 2373456,
      "byteStride": 12,
      "name": "floatBufferViews",
      "target": 34962
    },
    {
      "buffer": 0,
      "byteLength": 2059168,
      "byteOffset": 10788240,
      "byteStride": 16,
      "name": "floatBufferViews",
      "target": 34962
    }
  ],
  "buffers": [
    {
      "byteLength": 12847408,
      "uri": "scene.bin"
    }
  ],
  "extensionsRequired": [
    "KHR_materials_pbrSpecularGlossiness"
  ],
  "extensionsUsed": [
    "KHR_materials_pbrSpecularGlossiness"
  ],
  "materials": [
    {
      "alphaMode": "BLEND",
      "doubleSided": true,
      "extensions": {
        "KHR_materials_pbrSpecularGlossiness": {
          "diffuseFactor": [
            0.21815952229999999,
            0.21815952229999999,
            0.21815952229999999,
            0.995
          ],
          "glossinessFactor": 0.39805640240000001,
          "specularFactor": [
            0.39649390829784681,
            0.39649390829784681,
            0.39649390829784681
          ]
        }
      },
      "name": "Dice"
    },
    {
      "doubleSided": true,
      "emissiveFactor": [
        1,
        0.40472052710309042,
        0.099602420070650552
      ],
      "extensions": {
        "KHR_materials_pbrSpecularGlossiness": {
          "diffuseFactor": [
            0,
            0,
            0,
            1
          ],
          "glossinessFactor": 0.089748475599999988,
          "specularFactor": [
            0,
            0,
            0
          ]
        }
      },
      "name": "Numbers"
    }
  ],
  "meshes": [
    {
      "name": "d10_0",
      "primitives": [
        {
          "attributes": {
            "NORMAL": 1,
            "POSITION": 0
          },
          "indices": 2,
          "material": 0,
          "mode": 4
        }
      ]
    },
    {
      "name": "d10_1",
      "primitives": [
        {
          "attributes": {
            "NORMAL": 4,
            "POSITION": 3
          },
          "indices": 5,
          "material": 1,
          "mode": 4
        }
      ]
    },
    {
      "name": "d10_1",
      "primitives": [
        {
          "attributes": {
            "NORMAL": 7,
            "POSITION": 6
          },
          "indices": 8,
          "material": 1,
          "mode": 4
        }
      ]
    },
    {
      "name": "d20_0",
      "primitives": [
        {
          "attributes": {
            "NORMAL": 10,
            "POSITION": 9,
            "TANGENT": 11
          },
          "indices": 12,
          "material": 0,
          "mode": 4
        }
      ]
    },
    {
      "name": "d20_1",
      "primitives": [
        {
          "attributes": {
            "NORMAL": 14,
            "POSITION": 13,
            "TANGENT": 15
          },
          "indices": 16,
          "material": 1,
          "mode": 4
        }
      ]
    },
    {
      "name": "d20_1",
      "primitives": [
        {
          "attributes": {
            "NORMAL": 18,
            "POSITION": 17,
            "TANGENT": 19
          },
          "indices": 20,
          "material": 1,
          "mode": 4
        }
      ]
    },
    {
      "name": "d12_0",
      "primitives": [
        {
          "attributes": {
            "NORMAL": 22,
            "POSITION": 21
          },
          "indices": 23,
          "material": 0,
          "mode": 4
        }
      ]
    },
    {
      "name": "d12_1",
      "primitives": [
        {
          "attributes": {
            "NORMAL": 25,
            "POSITION": 24
          },
          "indices": 26,
          "material": 1,
          "mode": 4
        }
      ]
    },
    {
      "name": "d8_0",
      "primitives": [
        {
          "attributes": {
            "NORMAL": 28,
            "POSITION": 27
          },
          "indices": 29,
          "material": 0,
          "mode": 4
        }
      ]
    },
    {
      "name": "d8_1",
      "primitives": [
        {
          "attributes": {
            "NORMAL": 31,
            "POSITION": 30
          },
          "indices": 32,
          "material": 1,
          "mode": 4
        }
      ]
    },
    {
      "name": "d6_0",
      "primitives": [
        {
          "attributes": {
            "NORMAL": 34,
            "POSITION": 33
          },
          "indices": 35,
          "material": 0,
          "mode": 4
        }
      ]
    },
    {
      "name": "d6_1",
      "primitives": [
        {
          "attributes": {
            "NORMAL": 37,
            "POSITION": 36
          },
          "indices": 38,
          "material": 1,
          "mode": 4
        }
      ]
    },
    {
      "name": "Cone_0",
      "primitives": [
        {
          "attributes": {
            "NORMAL": 40,
            "POSITION": 39
          },
          "indices": 41,
          "material": 0,
          "mode": 4
        }
      ]
    },
    {
      "name": "Cone_1",
      "primitives": [
        {
          "attributes": {
            "NORMAL": 43,
            "POSITION": 42
          },
          "indices": 44,
          "material": 1,
          "mode": 4
        }
      ]
    }
  ],
  "nodes": [
    {
      "children": [
        1
      ],
      "name": "RootNode (gltf orientation matrix)",
      "rotation": [
        -0.70710678118654746,
        -0,
        -0,
        0.70710678118654757
      ]
    },
    {
      "children": [
        2
      ],
      "name": "RootNode (model correction matrix)"
    },
    {
      "children": [
        3,
        7,
        11,
        14,
        17,
        20,
        23
      ],
      "name": "Root"
    },
    {
      "children": [
        4,
        5,
        6
      ],
      "matrix": [
        -0.43320000000000003,
        0.42736000000000007,
        0.29922000000000004,
        0,
        -0.21337,
        -0.50004999999999999,
        0.40528999999999998,
        0,
        0.47607000000000005,
        0.16477000000000003,
        0.45392000000000005,
        0,
        0.060170000000000015,
        1.4444199999999998,
        0.66456000000000004,
        1
      ],
      "name": "d10"
    },
    {
      "mesh": 0,
      "name": "d10_0"
    },
    {
      "mesh": 1,
      "name": "d10_1"
    },
    {
      "mesh": 2,
      "name": "d10_1"
    },
    {
      "children": [
        8,
        9,
        10
      ],
      "matrix": [
        -0.43247000000000008,
        0.41292000000000006,
        -0.80337999999999998,
        0,
        -0.36863000000000001,
        0.73248000000000002,
        0.5749200000000001,
        0,
        0.82464000000000015,
        0.54398000000000002,
        -0.16432000000000002,
        0,
        0.43225000000000002,
        -1.20051,
        0.7893,
        1
      ],
      "name": "d20"
    },
    {
      "mesh": 3,
      "name": "d20_0"
    },
    {
      "mesh": 4,
      "name": "d20_1"
    },
    {
      "mesh": 5,
      "name": "d20_1"
    },
    {
      "children": [
        12,
        13
      ],
      "matrix": [
        0.52661000000000002,
        0,
        0,
        0,
        0,
        0.44776000000000005,
        0.27718999999999999,
        0,
        0,
        -0.27718999999999999,
        0.44776000000000005,
        0,
        -1.5770999999999999,
        1.7285400000000002,
        0.74220000000000008,
        1
      ],
      "name": "d12"
    },
    {
      "mesh": 6,
      "name": "d12_0"
    },
    {
      "mesh": 7,
      "name": "d12_1"
    },
    {
      "children": [
        15,
        16
      ],
      "matrix": [
        -0.004530000000000001,
        -0.53389000000000009,
        -0.66557000000000011,
        0,
        0.85322000000000009,
        -0.0072300000000000012,
        0,
        0,
        -0.0068800000000000024,
        -0.81198000000000004,
        0.65138000000000007,
        0,
        1.49485,
        0.2621,
        0.68464000000000025,
        1
      ],
      "name": "d8"
    },
    {
      "mesh": 8,
      "name": "d8_0"
    },
    {
      "mesh": 9,
      "name": "d8_1"
    },
    {
      "children": [
        18,
        19
      ],
      "matrix": [
        0.69182000000000021,
        0,
        0,
        0,
        0,
        0.69182000000000021,
        0,
        0,
        0,
        0,
        0.69182000000000021,
        0,
        -2.4344899999999998,
        -0.41482000000000008,
        0.70225000000000004,
        1
      ],
      "name": "d6"
    },
    {
      "mesh": 10,
      "name": "d6_0"
    },
    {
      "mesh": 11,
      "name": "d6_1"
    },
    {
      "children": [
        21,
        22
      ],
      "matrix": [
        -1.2422299999999999,
        0.0092900000000000031,
        0,
        0,
        -0.0092900000000000031,
        -1.2422299999999999,
        0,
        0,
        0,
        0,
        0.94232000000000005,
        0,
        -0.79299000000000008,
        -0.11191000000000001,
        0.95840000000000003,
        1
      ],
      "name": "Cone"
    },
    {
      "mesh": 12,
      "name": "Cone_0"
    },
    {
      "mesh": 13,
      "name": "Cone_1"
    },
    {
      "children": [
        24
      ],
      "matrix": [
        0.73676000000000008,
        0.1391,
        0,
        0,
        -0.13570000000000002,
        0.71875000000000011,
        0.16477000000000003,
        0,
        0.030570000000000007,
        -0.16191000000000005,
        0.73145000000000004,
        0,
        0.08901000000000002,
        -2.8032599999999999,
        14.674099999999999,
        1
      ],
      "name": "Lamp"
    },
    {
      "name": "Lamp"
    }
  ],
  "scene": 0,
  "scenes": [
    {
      "name": "OSG_Scene",
      "nodes": [
        0
      ]
    }
  ]
}

