{
  "accessors": [
    {
      "bufferView": 1,
      "componentType": 5126,
      "count": 1366,
      "max": [
        1.7843600511550903,
        2.6151800155639648,
        1
      ],
      "min": [
        -3.5790998935699463,
        -2.4878900051116943,
        -1
      ],
      "type": "VEC3"
    },
    {
      "bufferView": 1,
      "byteOffset": 16392,
      "componentType": 5126,
      "count": 1366,
      "max": [
        0.98840314149856567,
        0.80901843309402466,
        1
      ],
      "min": [
        -0.95105260610580444,
        -0.99999749660491943,
        -1
      ],
      "type": "VEC3"
    },
    {
      "bufferView": 0,
      "componentType": 5125,
      "count": 1932,
      "max": [
        1365
      ],
      "min": [
        0
      ],
      "type": "SCALAR"
    },
    {
      "bufferView": 1,
      "byteOffset": 32784,
      "componentType": 5126,
      "count": 558,
      "max": [
        5.3027701377868652,
        4.3810000419616699,
        2.8913600444793701
      ],
      "min": [
        -5.0840201377868652,
        -4.4334797859191895,
        0.54434001445770264
      ],
      "type": "VEC3"
    },
    {
      "bufferView": 1,
      "byteOffset": 39480,
      "componentType": 5126,
      "count": 558,
      "max": [
        0.96090412139892578,
        0.9642910361289978,
        0.99963748455047607
      ],
      "min": [
        -0.98875761032104492,
        -0.89150285720825195,
        -0.99910432100296021
      ],
      "type": "VEC3"
    },
    {
      "bufferView": 0,
      "byteOffset": 7728,
      "componentType": 5125,
      "count": 558,
      "max": [
        557
      ],
      "min": [
        0
      ],
      "type": "SCALAR"
    },
    {
      "bufferView": 1,
      "byteOffset": 46176,
      "componentType": 5126,
      "count": 201,
      "max": [
        5.3027701377868652,
        4.3810000419616699,
        2.8913600444793701
      ],
      "min": [
        -5.0840201377868652,
        -4.4334797859191895,
        0.54434001445770264
      ],
      "type": "VEC3"
    },
    {
      "bufferView": 1,
      "byteOffset": 48588,
      "componentType": 5126,
      "count": 201,
      "max": [
        0.83914119005203247,
        0.98598289489746094,
        0.99753057956695557
      ],
      "min": [
        -0.68910300731658936,
        -0.66751086711883545,
        -0.99874454736709595
      ],
      "type": "VEC3"
    },
    {
      "bufferView": 0,
      "byteOffset": 9960,
      "componentType": 5125,
      "count": 201,
      "max": [
        200
      ],
      "min": [
        0
      ],
      "type": "SCALAR"
    },
    {
      "bufferView": 1,
      "byteOffset": 51000,
      "componentType": 5126,
      "count": 201,
      "max": [
        5.3027701377868652,
        4.3810000419616699,
        2.8913600444793701
      ],
      "min": [
        -5.0840201377868652,
        -4.4334797859191895,
        0.54434001445770264
      ],
      "type": "VEC3"
    },
    {
      "bufferView": 1,
      "byteOffset": 53412,
      "componentType": 5126,
      "count": 201,
      "max": [
        0.94115328788757324,
        0.95943635702133179,
        0.99963748455047607
      ],
      "min": [
        -0.91932898759841919,
        -0.99082857370376587,
        -0.99847942590713501
      ],
      "type": "VEC3"
    },
    {
      "bufferView": 0,
      "byteOffset": 10764,
      "componentType": 5125,
      "count": 201,
      "max": [
        200
      ],
      "min": [
        0
      ],
      "type": "SCALAR"
    }
  ],
  "asset": {
    "extras": {
      "author": "katugamer (https://sketchfab.com/katugamer)",
      "license": "CC-BY-NC-4.0 (http://creativecommons.org/licenses/by-nc/4.0/)",
      "source": "https://sketchfab.com/models/c4f2fd7a79374fdd888dc0894e77feb1",
      "title": "Árvore Low Poly"
    },
    "generator": "Sketchfab-3.42.7",
    "version": "2.0"
  },
  "bufferViews": [
    {
      "buffer": 0,
      "byteLength": 11568,
      "byteOffset": 0,
      "name": "floatBufferViews",
      "target": 34963
    },
    {
      "buffer": 0,
      "byteLength": 55824,
      "byteOffset": 11568,
      "byteStride": 12,
      "name": "floatBufferViews",
      "target": 34962
    }
  ],
  "buffers": [
    {
      "byteLength": 67392,
      "uri": "scene.bin"
    }
  ],
  "materials": [
    {
      "doubleSided": true,
      "emissiveFactor": [
        0,
        0,
        0
      ],
      "name": "Material.005",
      "pbrMetallicRoughness": {
        "baseColorFactor": [
          0.2202578187,
          0.044216774399999999,
          0.0082055023000000005,
          1
        ],
        "metallicFactor": 0,
        "roughnessFactor": 0.59999999999999998
      }
    },
    {
      "doubleSided": true,
      "emissiveFactor": [
        0,
        0,
        0
      ],
      "name": "Material.002",
      "pbrMetallicRoughness": {
        "baseColorFactor": [
          0.020018385699999999,
          0.80000007149999997,
          0.0051189162999999999,
          1
        ],
        "metallicFactor": 0,
        "roughnessFactor": 0.59999999999999998
      }
    },
    {
      "doubleSided": true,
      "emissiveFactor": [
        0,
        0,
        0
      ],
      "name": "Material.003",
      "pbrMetallicRoughness": {
        "baseColorFactor": [
          0.0088853296000000002,
          0.45753204819999999,
          0.012994547400000001,
          1
        ],
        "metallicFactor": 0,
        "roughnessFactor": 0.59999999999999998
      }
    },
    {
      "doubleSided": true,
      "emissiveFactor": [
        0,
        0,
        0
      ],
      "name": "Material.004",
      "pbrMetallicRoughness": {
        "baseColorFactor": [
          0.1327624023,
          1,
          0,
          1
        ],
        "metallicFactor": 0,
        "roughnessFactor": 0.59999999999999998
      }
    }
  ],
  "meshes": [
    {
      "name": "Cylinder_0",
      "primitives": [
        {
          "attributes": {
            "NORMAL": 1,
            "POSITION": 0
          },
          "indices": 2,
          "material": 0,
          "mode": 4
        }
      ]
    },
    {
      "name": "Cylinder_1",
      "primitives": [
        {
          "attributes": {
            "NORMAL": 4,
            "POSITION": 3
          },
          "indices": 5,
          "material": 1,
          "mode": 4
        }
      ]
    },
    {
      "name": "Cylinder_2",
      "primitives": [
        {
          "attributes": {
            "NORMAL": 7,
            "POSITION": 6
          },
          "indices": 8,
          "material": 2,
          "mode": 4
        }
      ]
    },
    {
      "name": "Cylinder_3",
      "primitives": [
        {
          "attributes": {
            "NORMAL": 10,
            "POSITION": 9
          },
          "indices": 11,
          "material": 3,
          "mode": 4
        }
      ]
    }
  ],
  "nodes": [
    {
      "children": [
        1
      ],
      "name": "RootNode (gltf orientation matrix)",
      "rotation": [
        -0.70710678118654746,
        -0,
        -0,
        0.70710678118654757
      ]
    },
    {
      "children": [
        2
      ],
      "name": "RootNode (model correction matrix)"
    },
    {
      "children": [
        3
      ],
      "name": "Root"
    },
    {
      "children": [
        4,
        5,
        6,
        7
      ],
      "matrix": [
        0.37308000000000008,
        0,
        0,
        0,
        0,
        0.37308000000000008,
        0,
        0,
        0,
        0,
        1.4938399999999998,
        0,
        0,
        0,
        1.5,
        1
      ],
      "name": "Cylinder"
    },
    {
      "mesh": 0,
      "name": "Cylinder_0"
    },
    {
      "mesh": 1,
      "name": "Cylinder_1"
    },
    {
      "mesh": 2,
      "name": "Cylinder_2"
    },
    {
      "mesh": 3,
      "name": "Cylinder_3"
    }
  ],
  "scene": 0,
  "scenes": [
    {
      "name": "OSG_Scene",
      "nodes": [
        0
      ]
    }
  ]
}

