{
  "accessors": [
    {
      "bufferView": 2,
      "componentType": 5126,
      "count": 2267,
      "max": [
        6.864799976348877,
        1.4329409599304199,
        5.4761128425598145
      ],
      "min": [
        1.5196969509124756,
        -4.3355669975280762,
        0.10972499847412109
      ],
      "type": "VEC3"
    },
    {
      "bufferView": 2,
      "byteOffset": 27204,
      "componentType": 5126,
      "count": 2267,
      "max": [
        0.99161046743392944,
        0.99694937467575073,
        0.99787086248397827
      ],
      "min": [
        -0.99558037519454956,
        -0.99895012378692627,
        -0.99943536520004272
      ],
      "type": "VEC3"
    },
    {
      "bufferView": 3,
      "componentType": 5126,
      "count": 2267,
      "max": [
        0.99943238496780396,
        0.98164170980453491,
        0.99793088436126709,
        1
      ],
      "min": [
        -0.99827194213867188,
        -0.99750936031341553,
        -0.99721270799636841,
        -1
      ],
      "type": "VEC4"
    },
    {
      "bufferView": 1,
      "componentType": 5126,
      "count": 2267,
      "max": [
        0.98713499307632446,
        0.98144400119781494
      ],
      "min": [
        0.016037000343203545,
        0.022763000801205635
      ],
      "type": "VEC2"
    },
    {
      "bufferView": 0,
      "componentType": 5125,
      "count": 2340,
      "max": [
        2266
      ],
      "min": [
        0
      ],
      "type": "SCALAR"
    }
  ],
  "asset": {
    "extras": {
      "author": "Nive (https://sketchfab.com/Nive)",
      "license": "CC-BY-4.0 (http://creativecommons.org/licenses/by/4.0/)",
      "source": "https://sketchfab.com/models/f874281b40e74e749d7c7389457ad92d",
      "title": "Tree"
    },
    "generator": "Sketchfab-3.18.6",
    "version": "2.0"
  },
  "bufferViews": [
    {
      "buffer": 0,
      "byteLength": 9360,
      "byteOffset": 0,
      "name": "floatBufferViews",
      "target": 34963
    },
    {
      "buffer": 0,
      "byteLength": 18136,
      "byteOffset": 9360,
      "byteStride": 8,
      "name": "floatBufferViews",
      "target": 34962
    },
    {
      "buffer": 0,
      "byteLength": 54408,
      "byteOffset": 27496,
      "byteStride": 12,
      "name": "floatBufferViews",
      "target": 34962
    },
    {
      "buffer": 0,
      "byteLength": 36272,
      "byteOffset": 81904,
      "byteStride": 16,
      "name": "floatBufferViews",
      "target": 34962
    }
  ],
  "buffers": [
    {
      "byteLength": 118176,
      "uri": "scene.bin"
    }
  ],
  "images": [
    {
      "uri": "textures/Shader_Arbol_baseColor.png"
    }
  ],
  "materials": [
    {
      "doubleSided": true,
      "emissiveFactor": [
        0,
        0,
        0
      ],
      "name": "Shader_Arbol",
      "pbrMetallicRoughness": {
        "baseColorFactor": [
          1,
          1,
          1,
          1
        ],
        "baseColorTexture": {
          "index": 0,
          "texCoord": 0
        },
        "metallicFactor": 0,
        "roughnessFactor": 1
      }
    }
  ],
  "meshes": [
    {
      "primitives": [
        {
          "attributes": {
            "NORMAL": 1,
            "POSITION": 0,
            "TANGENT": 2,
            "TEXCOORD_0": 3
          },
          "indices": 4,
          "material": 0,
          "mode": 4
        }
      ]
    }
  ],
  "nodes": [
    {
      "children": [
        1
      ],
      "name": "RootNode (gltf orientation matrix)",
      "rotation": [
        -0.70710678118654746,
        -0,
        -0,
        0.70710678118654757
      ]
    },
    {
      "children": [
        2
      ],
      "name": "RootNode (model correction matrix)"
    },
    {
      "children": [
        3
      ],
      "name": "Arbol.obj.cleaner.materialmerger.gles"
    },
    {
      "mesh": 0,
      "name": ""
    }
  ],
  "samplers": [
    {
      "magFilter": 9729,
      "minFilter": 9987,
      "wrapS": 10497,
      "wrapT": 10497
    }
  ],
  "scene": 0,
  "scenes": [
    {
      "name": "OSG_Scene",
      "nodes": [
        0
      ]
    }
  ],
  "textures": [
    {
      "sampler": 0,
      "source": 0
    }
  ]
}

